# xmcd
#
# Track frame offsets:
#	150
#	14497
#	29255
#	43880
#	57085
#	70687
#	84342
#	99885
#	113365
#	124262
#	139425
#	151285
#
# Disc length: 2195 seconds
#
# Revision: 0
# Processed by: cddbd v1.5.2PL0 Copyright (c) Steve Scherf et al.
# Submitted via: EasyCDDAExtractor 16.0.6.1
#
DISCID=9508910c
DTITLE=Μπουρνέλης Λεονάρδος - Τα τσιφτετέλια του Μπουρνέλη
DYEAR=1974
DGENRE=Ποικίλη
TTITLE0=Άνευ ερμηνευτού - Το τσιφτετέλι του Μπουρνέλη [Λ. Μπουρνέλης]
TTITLE1=Μπουρνέλης Λεονάρδος - Βασανισμένο μου κορμί [Λ. Μπουρνέλης]
TTITLE2=Άνευ ερμηνευτού - Το διπλόχορδο του Μπουρνέλη [Λ. Μπουρνέλης]
TTITLE3=Μπουρνέλης Λεονάρδος - Μού λέτε, αν παντρεύομαι [Λ. Μπουρνέλη-Ε. Δαλέζ
TTITLE3=ιου]
TTITLE4=Άνευ ερμηνευτού - Πήρε φωτιά ο μπαγλαμάς [Λ. Μπουρνέλης]
TTITLE5=Άνευ ερμηνευτού - Το τσιφτετέλι της φωτιάς [Λ. Μπουρνέλης]
TTITLE6=Άνευ ερμηνευτού - Τσιφτετέλι στο χοντρό [Λ. Μπουρνέλης]
TTITLE7=Μπουρνέλης Λεονάρδος - Η Μαριώ [Λ. Μπουρνέλης]
TTITLE8=Άνευ ερμηνευτού - Το σέρβικο του μπαγλαμά [Λ. Μπουρνέλης]
TTITLE9=Άνευ ερμηνευτού - Τα ωραία του Μπουρνέλη [Λ. Μπουρνέλης]
TTITLE10=Άνευ ερμηνευτού - Το τσιφτετέλι του Μπουρνέλη [Λ. Μπουρνέλης]
TTITLE11=Μπουρνέλης Λεονάρδος - Ο τυχεράκιας [Λ. Μπουρνέλης]
EXTD=
EXTT0=
EXTT1=
EXTT2=
EXTT3=
EXTT4=
EXTT5=
EXTT6=
EXTT7=
EXTT8=
EXTT9=
EXTT10=
EXTT11=
PLAYORDER=
